# xmcd
# 
# Track frame offsets:
#     150
#     24837
#     50727
#     71085
#     94482
#     112070
#     132312
#     153210
#     172112
#     192307
#     211872
#     235980
# 
# Disc length: 3349
# 
# Revision: 1
# Processed by: cddbd v1.5.2PL0 Copyright (c) Steve Scherf et al.
# Submitted via: BonkEnc v1.0.8
# 
DISCID=ad0d130c
DTITLE=加藤いづみ - smiles and tears -selection-
DYEAR=1996
DGENRE=JPop
TTITLE0=星空のジェットプレイン
TTITLE1=Zero
TTITLE2=ナチュラル・ガール
TTITLE3=髪を切ってしまおう
TTITLE4=マリアージュ〜愛の花咲いた〜
TTITLE5=好きになって、よかった
TTITLE6=アイツに会ったら
TTITLE7=さよならが言えない
TTITLE8=坂道
TTITLE9=彼女の恋人
TTITLE10=SnowBird
TTITLE11=多摩川を渡って
EXTD=YEAR: 1996
EXTT0=
EXTT1=
EXTT2=
EXTT3=
EXTT4=
EXTT5=
EXTT6=
EXTT7=
EXTT8=
EXTT9=
EXTT10=
EXTT11=
PLAYORDER=
